<?xml version="1.0" encoding="UTF-8"?>
<svg xmlns="http://www.w3.org/2000/svg" xmlns:xlink="http://www.w3.org/1999/xlink" width="32px" height="32px" viewBox="0 0 32 32" version="1.1">
<defs>
<filter id="alpha" filterUnits="objectBoundingBox" x="0%" y="0%" width="100%" height="100%">
  <feColorMatrix type="matrix" in="SourceGraphic" values="0 0 0 0 1 0 0 0 0 1 0 0 0 0 1 0 0 0 1 0"/>
</filter>
<mask id="mask0">
  <g filter="url(#alpha)">
<rect x="0" y="0" width="32" height="32" style="fill:rgb(0%,0%,0%);fill-opacity:0.25;stroke:none;"/>
  </g>
</mask>
<clipPath id="clip1">
  <rect x="0" y="0" width="32" height="32"/>
</clipPath>
<g id="surface5" clip-path="url(#clip1)">
<path style=" stroke:none;fill-rule:nonzero;fill:rgb(0%,0%,0%);fill-opacity:1;" d="M 0.5 28.5 C 0.5 28.777344 0.722656 29 1 29 L 31 29 C 31.277344 29 31.5 28.777344 31.5 28.5 Z M 0.5 28.5 "/>
</g>
</defs>
<g id="surface1">
<path style=" stroke:none;fill-rule:evenodd;fill:rgb(4.313726%,50.980395%,100%);fill-opacity:1;" d="M 2 3 C 1.722656 3.027344 1.5 3.222656 1.5 3.5 L 1.5 24.5 L 30.5 24.5 L 30.5 5.5 C 30.5 5 30 5 30 5 L 16.5 5 C 15.5 3 13.5 3 13.5 3 Z M 2 3 "/>
<path style=" stroke:none;fill-rule:nonzero;fill:rgb(100%,100%,100%);fill-opacity:1;" d="M 3.5 6.5 L 28.5 6.5 L 28.5 22.5 L 3.5 22.5 Z M 3.5 6.5 "/>
<path style=" stroke:none;fill-rule:evenodd;fill:rgb(25.882354%,61.960787%,100%);fill-opacity:1;" d="M 19.5 7.5 C 19.5 7.5 17.5 7.5 16.5 9.5 L 1 9.5 C 1 9.5 0.933594 9.507812 0.855469 9.53125 C 0.832031 9.535156 0.808594 9.539062 0.789062 9.550781 C 0.652344 9.605469 0.5 9.722656 0.5 10 L 0.5 28.5 C 0.5 28.777344 0.722656 29 1 29 L 31 29 C 31.277344 29 31.5 28.777344 31.5 28.5 L 31.5 8 C 31.5 7.722656 31.277344 7.5 31 7.5 Z M 19.5 7.5 "/>
<use xlink:href="#surface5" mask="url(#mask0)"/>
<path style=" stroke:none;fill-rule:evenodd;fill:rgb(19.215687%,46.27451%,74.901962%);fill-opacity:1;" d="M 14 14 L 11 16 L 13 17.5 L 16 15.5 Z M 16 15.5 L 19 17.5 L 21 16 L 18 14 Z M 13 18 L 11 19.5 L 14 21.5 L 16 20 Z M 16 20 L 18 21.5 L 21 19.5 L 19 18 Z M 16 20.5 L 13.953125 22.136719 L 13 21.5 L 13 22 L 13.613281 22.410156 L 16 24 L 18.386719 22.410156 L 19 22 L 19 21.5 L 18.046875 22.136719 Z M 16 20.5 "/>
</g>
</svg>
