<?xml version="1.0" encoding="UTF-8"?>
<svg xmlns="http://www.w3.org/2000/svg" xmlns:xlink="http://www.w3.org/1999/xlink" width="48px" height="48px" viewBox="0 0 48 48" version="1.1">
<defs>
<filter id="alpha" filterUnits="objectBoundingBox" x="0%" y="0%" width="100%" height="100%">
  <feColorMatrix type="matrix" in="SourceGraphic" values="0 0 0 0 1 0 0 0 0 1 0 0 0 0 1 0 0 0 1 0"/>
</filter>
<mask id="mask0">
  <g filter="url(#alpha)">
<rect x="0" y="0" width="48" height="48" style="fill:rgb(0%,0%,0%);fill-opacity:0.25;stroke:none;"/>
  </g>
</mask>
<clipPath id="clip1">
  <rect x="0" y="0" width="48" height="48"/>
</clipPath>
<g id="surface5" clip-path="url(#clip1)">
<path style=" stroke:none;fill-rule:nonzero;fill:rgb(0%,0%,0%);fill-opacity:1;" d="M 0.75 42.75 C 0.75 43.164062 1.085938 43.5 1.5 43.5 L 46.5 43.5 C 46.914062 43.5 47.25 43.164062 47.25 42.75 Z M 0.75 42.75 "/>
</g>
</defs>
<g id="surface1">
<path style=" stroke:none;fill-rule:evenodd;fill:rgb(42.352942%,47.843137%,53.725493%);fill-opacity:1;" d="M 3 4.5 C 2.585938 4.542969 2.25 4.835938 2.25 5.25 L 2.25 36.75 L 45.75 36.75 L 45.75 8.25 C 45.75 7.5 45 7.5 45 7.5 L 24.75 7.5 C 23.25 4.5 20.25 4.5 20.25 4.5 Z M 3 4.5 "/>
<path style=" stroke:none;fill-rule:nonzero;fill:rgb(100%,100%,100%);fill-opacity:1;" d="M 5.25 9.75 L 42.75 9.75 L 42.75 33.75 L 5.25 33.75 Z M 5.25 9.75 "/>
<path style=" stroke:none;fill-rule:evenodd;fill:rgb(85.490197%,87.450981%,88.235295%);fill-opacity:1;" d="M 29.25 11.25 C 29.25 11.25 26.25 11.25 24.75 14.25 L 1.5 14.25 C 1.5 14.25 1.402344 14.261719 1.28125 14.292969 C 1.25 14.304688 1.214844 14.3125 1.183594 14.324219 C 0.976562 14.410156 0.75 14.582031 0.75 15 L 0.75 42.75 C 0.75 43.164062 1.085938 43.5 1.5 43.5 L 46.5 43.5 C 46.914062 43.5 47.25 43.164062 47.25 42.75 L 47.25 12 C 47.25 11.585938 46.914062 11.25 46.5 11.25 Z M 29.25 11.25 "/>
<use xlink:href="#surface5" mask="url(#mask0)"/>
<path style=" stroke:none;fill-rule:evenodd;fill:rgb(42.352942%,47.843137%,53.725493%);fill-opacity:1;" d="M 24 24.75 L 20.625 26.476562 L 20.625 30.523438 L 24 32.25 L 27.375 30.523438 L 27.375 26.476562 Z M 24 24.75 "/>
<path style=" stroke:none;fill-rule:evenodd;fill:rgb(42.352942%,47.843137%,53.725493%);fill-opacity:1;" d="M 22.5 36 L 18 33.675781 L 20.25 32.25 L 22.5 33.449219 Z M 22.5 36 "/>
<path style=" stroke:none;fill-rule:evenodd;fill:rgb(42.352942%,47.843137%,53.725493%);fill-opacity:1;" d="M 17.25 25.5 L 17.25 31.5 L 19.5 30 L 19.5 27 Z M 17.25 25.5 "/>
<path style=" stroke:none;fill-rule:evenodd;fill:rgb(42.352942%,47.843137%,53.725493%);fill-opacity:1;" d="M 30.75 25.5 L 30.75 31.5 L 28.5 30 L 28.5 27 Z M 30.75 25.5 "/>
<path style=" stroke:none;fill-rule:evenodd;fill:rgb(42.352942%,47.843137%,53.725493%);fill-opacity:1;" d="M 25.5 36 L 30 33.675781 L 27.75 32.25 L 25.5 33.449219 Z M 25.5 36 "/>
<path style=" stroke:none;fill-rule:evenodd;fill:rgb(42.352942%,47.843137%,53.725493%);fill-opacity:1;" d="M 22.5 21 L 18 23.324219 L 20.25 24.75 L 22.5 23.550781 Z M 22.5 21 "/>
<path style=" stroke:none;fill-rule:evenodd;fill:rgb(42.352942%,47.843137%,53.725493%);fill-opacity:1;" d="M 25.5 21 L 30 23.324219 L 27.75 24.75 L 25.5 23.550781 Z M 25.5 21 "/>
</g>
</svg>
