<?xml version="1.0" encoding="UTF-8"?>
<svg xmlns="http://www.w3.org/2000/svg" xmlns:xlink="http://www.w3.org/1999/xlink" width="32px" height="32px" viewBox="0 0 32 32" version="1.1">
<g id="surface1">
<path style=" stroke:none;fill-rule:nonzero;fill:rgb(24.313726%,80.392158%,96.470588%);fill-opacity:1;" d="M 1 3 C 0.722656 3 0.5 3.222656 0.5 3.5 L 0.5 28.5 C 0.5 28.777344 0.722656 29 1 29 L 31 29 C 31.277344 29 31.5 28.777344 31.5 28.5 L 31.5 3.5 C 31.5 3.222656 31.277344 3 31 3 Z M 1 3 "/>
<path style=" stroke:none;fill-rule:evenodd;fill:rgb(9.019608%,18.431373%,33.333334%);fill-opacity:1;" d="M 28.5 14.5 L 14 29 L 31 29 C 31.277344 29 31.5 28.777344 31.5 28.5 L 31.5 17.5 Z M 28.5 14.5 "/>
<path style=" stroke:none;fill-rule:evenodd;fill:rgb(94.509804%,94.901961%,95.686275%);fill-opacity:1;" d="M 28.5 14.5 L 24.699219 18.300781 L 26.5 17.5 L 28.5 19 L 29 18 L 31.5 20.5 L 30.5 18 L 31.5 18 L 31.5 17.5 Z M 28.5 14.5 "/>
<path style=" stroke:none;fill-rule:nonzero;fill:rgb(77.254903%,93.725491%,96.862745%);fill-opacity:1;" d="M 0.5 27 L 0.5 28.5 C 0.5 28.777344 0.722656 29 1 29 L 31 29 C 31.277344 29 31.5 28.777344 31.5 28.5 L 31.5 27 Z M 0.5 27 "/>
<path style=" stroke:none;fill-rule:nonzero;fill:rgb(17.254902%,24.313726%,31.37255%);fill-opacity:1;" d="M 30 27.75 C 30 27.886719 29.886719 28 29.75 28 C 29.613281 28 29.5 27.886719 29.5 27.75 C 29.5 27.613281 29.613281 27.5 29.75 27.5 C 29.886719 27.5 30 27.613281 30 27.75 Z M 30 27.75 "/>
<path style=" stroke:none;fill-rule:nonzero;fill:rgb(17.254902%,24.313726%,31.37255%);fill-opacity:1;" d="M 28.5 27.75 C 28.5 27.886719 28.386719 28 28.25 28 C 28.113281 28 28 27.886719 28 27.75 C 28 27.613281 28.113281 27.5 28.25 27.5 C 28.386719 27.5 28.5 27.613281 28.5 27.75 Z M 28.5 27.75 "/>
<path style=" stroke:none;fill-rule:nonzero;fill:rgb(17.254902%,24.313726%,31.37255%);fill-opacity:1;" d="M 27 27.75 C 27 27.886719 26.886719 28 26.75 28 C 26.613281 28 26.5 27.886719 26.5 27.75 C 26.5 27.613281 26.613281 27.5 26.75 27.5 C 26.886719 27.5 27 27.613281 27 27.75 Z M 27 27.75 "/>
<path style=" stroke:none;fill-rule:nonzero;fill:rgb(72.941178%,92.156863%,98.823529%);fill-opacity:1;" d="M 5.5 4.75 C 5.070312 4.75 4.660156 4.9375 4.375 5.261719 C 4.0625 5.296875 3.785156 5.484375 3.628906 5.761719 C 3.585938 5.753906 3.542969 5.75 3.5 5.75 C 2.949219 5.75 2.5 6.199219 2.5 6.75 C 2.5 6.792969 2.503906 6.835938 2.507812 6.878906 C 2.195312 7.058594 2 7.390625 2 7.75 C 2 8.300781 2.449219 8.75 3 8.75 L 7.5 8.75 C 8.328125 8.75 9 8.078125 9 7.25 C 9 6.421875 8.328125 5.75 7.5 5.75 C 7.457031 5.75 7.414062 5.753906 7.367188 5.757812 C 7.214844 5.484375 6.9375 5.296875 6.621094 5.257812 C 6.339844 4.9375 5.929688 4.75 5.5 4.75 Z M 5.5 4.75 "/>
<path style=" stroke:none;fill-rule:nonzero;fill:rgb(65.098041%,90.588236%,95.294118%);fill-opacity:1;" d="M 0.5 28.5 C 0.5 28.777344 0.722656 29 1 29 L 31 29 C 31.277344 29 31.5 28.777344 31.5 28.5 Z M 0.5 28.5 "/>
<path style=" stroke:none;fill-rule:nonzero;fill:rgb(17.254902%,24.313726%,31.37255%);fill-opacity:1;" d="M 1.5 27.75 C 1.5 27.886719 1.386719 28 1.25 28 C 1.113281 28 1 27.886719 1 27.75 C 1 27.613281 1.113281 27.5 1.25 27.5 C 1.386719 27.5 1.5 27.613281 1.5 27.75 Z M 1.5 27.75 "/>
<path style=" stroke:none;fill-rule:nonzero;fill:rgb(17.254902%,24.313726%,31.37255%);fill-opacity:1;" d="M 2.5 27.75 C 2.5 27.886719 2.386719 28 2.25 28 C 2.113281 28 2 27.886719 2 27.75 C 2 27.613281 2.113281 27.5 2.25 27.5 C 2.386719 27.5 2.5 27.613281 2.5 27.75 Z M 2.5 27.75 "/>
</g>
</svg>
