<?xml version="1.0" encoding="UTF-8"?>
<svg xmlns="http://www.w3.org/2000/svg" xmlns:xlink="http://www.w3.org/1999/xlink" width="32px" height="32px" viewBox="0 0 32 32" version="1.1">
<g id="surface1">
<path style=" stroke:none;fill-rule:nonzero;fill:rgb(85.490197%,87.450981%,88.235295%);fill-opacity:1;" d="M 24.5 27 C 24.5 28.105469 20.695312 29 16 29 C 11.304688 29 7.5 28.105469 7.5 27 C 7.5 25.894531 11.304688 25 16 25 C 20.695312 25 24.5 25.894531 24.5 27 Z M 24.5 27 "/>
<path style=" stroke:none;fill-rule:evenodd;fill:rgb(85.490197%,87.450981%,88.235295%);fill-opacity:1;" d="M 4 6 L 7.5 27 L 16 27.5 L 24.5 27 L 28 6 Z M 4 6 "/>
<path style=" stroke:none;fill-rule:nonzero;fill:rgb(42.352942%,47.843137%,53.725493%);fill-opacity:1;" d="M 28 6 C 28 7.65625 22.628906 9 16 9 C 9.371094 9 4 7.65625 4 6 C 4 4.34375 9.371094 3 16 3 C 22.628906 3 28 4.34375 28 6 Z M 28 6 "/>
<path style=" stroke:none;fill-rule:nonzero;fill:rgb(42.352942%,47.843137%,53.725493%);fill-opacity:1;" d="M 24.464844 27.171875 C 23.1875 27.96875 19.800781 28.5 16 28.5 C 12.207031 28.5 8.824219 27.96875 7.539062 27.175781 C 7.929688 28.207031 11.597656 29 16 29 C 20.40625 29 24.082031 28.207031 24.464844 27.171875 Z M 24.464844 27.171875 "/>
<path style=" stroke:none;fill-rule:nonzero;fill:rgb(80.392158%,25.882354%,29.803923%);fill-opacity:1;" d="M 26 7.65625 C 24.972656 8.042969 23.605469 8.363281 22 8.59375 L 22 17.5 L 24 16.101562 L 26 17.5 Z M 26 7.65625 "/>
<path style=" stroke:none;fill-rule:nonzero;fill:rgb(82.352942%,30.19608%,34.117648%);fill-opacity:1;" d="M 25.5 7.828125 C 24.71875 8.082031 23.785156 8.300781 22.726562 8.480469 C 22.664062 8.492188 22.574219 8.507812 22.5 8.523438 L 22.5 16.5 L 24 15.5 L 25.5 16.5 Z M 25.5 7.828125 "/>
<path style=" stroke:none;fill-rule:nonzero;fill:rgb(42.352942%,47.843137%,53.725493%);fill-opacity:1;" d="M 14.308594 13.5 L 13.164062 15.601562 L 15 16.679688 L 16 14.90625 L 16.347656 15.523438 L 16.027344 16.089844 L 17.894531 16.089844 L 18.914062 14.289062 L 18.460938 14.550781 L 17.875 13.5 Z M 19.292969 16.75 L 17.460938 17.835938 L 18.460938 19.617188 L 17.765625 19.617188 L 17.445312 19.042969 L 16.507812 20.691406 L 17.527344 22.5 L 17.527344 21.980469 L 18.71875 21.980469 L 20.3125 19.15625 L 20.464844 18.886719 L 20.5 18.816406 Z M 11.644531 17.390625 L 12.09375 17.652344 L 11.5 18.703125 L 13.097656 21.527344 L 13.242188 21.796875 L 13.28125 21.867188 L 15.636719 21.832031 L 15.636719 19.660156 L 13.621094 19.660156 L 13.972656 19.042969 L 14.617188 19.042969 L 13.683594 17.390625 Z M 11.644531 17.390625 "/>
</g>
</svg>
