<?xml version="1.0" encoding="UTF-8"?>
<svg xmlns="http://www.w3.org/2000/svg" xmlns:xlink="http://www.w3.org/1999/xlink" width="48px" height="48px" viewBox="0 0 48 48" version="1.1">
<defs>
<filter id="alpha" filterUnits="objectBoundingBox" x="0%" y="0%" width="100%" height="100%">
  <feColorMatrix type="matrix" in="SourceGraphic" values="0 0 0 0 1 0 0 0 0 1 0 0 0 0 1 0 0 0 1 0"/>
</filter>
<mask id="mask0">
  <g filter="url(#alpha)">
<rect x="0" y="0" width="48" height="48" style="fill:rgb(0%,0%,0%);fill-opacity:0.25;stroke:none;"/>
  </g>
</mask>
<clipPath id="clip1">
  <rect x="0" y="0" width="48" height="48"/>
</clipPath>
<g id="surface5" clip-path="url(#clip1)">
<path style=" stroke:none;fill-rule:nonzero;fill:rgb(0%,0%,0%);fill-opacity:1;" d="M 0.75 42.75 C 0.75 43.164062 1.085938 43.5 1.5 43.5 L 46.5 43.5 C 46.914062 43.5 47.25 43.164062 47.25 42.75 Z M 0.75 42.75 "/>
</g>
</defs>
<g id="surface1">
<path style=" stroke:none;fill-rule:evenodd;fill:rgb(61.56863%,22.745098%,25.490198%);fill-opacity:1;" d="M 3 4.5 C 2.585938 4.542969 2.25 4.835938 2.25 5.25 L 2.25 36.75 L 45.75 36.75 L 45.75 8.25 C 45.75 7.5 45 7.5 45 7.5 L 24.75 7.5 C 23.25 4.5 20.25 4.5 20.25 4.5 Z M 3 4.5 "/>
<path style=" stroke:none;fill-rule:nonzero;fill:rgb(100%,100%,100%);fill-opacity:1;" d="M 5.25 9.75 L 42.75 9.75 L 42.75 33.75 L 5.25 33.75 Z M 5.25 9.75 "/>
<path style=" stroke:none;fill-rule:evenodd;fill:rgb(82.352942%,30.19608%,34.117648%);fill-opacity:1;" d="M 29.25 11.25 C 29.25 11.25 26.25 11.25 24.75 14.25 L 1.5 14.25 C 1.5 14.25 1.402344 14.261719 1.28125 14.292969 C 1.25 14.304688 1.214844 14.3125 1.183594 14.324219 C 0.976562 14.410156 0.75 14.582031 0.75 15 L 0.75 42.75 C 0.75 43.164062 1.085938 43.5 1.5 43.5 L 46.5 43.5 C 46.914062 43.5 47.25 43.164062 47.25 42.75 L 47.25 12 C 47.25 11.585938 46.914062 11.25 46.5 11.25 Z M 29.25 11.25 "/>
<use xlink:href="#surface5" mask="url(#mask0)"/>
<path style=" stroke:none;fill-rule:nonzero;fill:rgb(61.56863%,22.745098%,25.490198%);fill-opacity:1;" d="M 21 21 C 20.171875 21 19.5 21.671875 19.5 22.5 C 19.5 23.035156 19.785156 23.53125 20.25 23.796875 L 20.25 33.203125 C 19.785156 33.472656 19.5 33.964844 19.5 34.5 C 19.5 35.328125 20.171875 36 21 36 C 21.828125 36 22.5 35.328125 22.5 34.5 C 22.5 33.964844 22.214844 33.46875 21.75 33.203125 L 21.75 32.25 C 21.75 31.003906 22.753906 30 24 30 L 25.875 30 C 27.746094 30 29.25 28.496094 29.25 26.625 L 29.25 25.296875 C 29.714844 25.027344 30 24.535156 30 24 C 30 23.171875 29.328125 22.5 28.5 22.5 C 27.671875 22.5 27 23.171875 27 24 C 27 24.535156 27.285156 25.027344 27.75 25.296875 L 27.75 26.25 C 27.75 27.496094 26.746094 28.5 25.5 28.5 L 23.625 28.5 C 22.929688 28.5 22.285156 28.710938 21.75 29.066406 L 21.75 23.796875 C 22.214844 23.53125 22.5 23.035156 22.5 22.5 C 22.5 21.671875 21.828125 21 21 21 Z M 21 21 "/>
</g>
</svg>
