<?xml version="1.0" encoding="UTF-8"?>
<svg xmlns="http://www.w3.org/2000/svg" xmlns:xlink="http://www.w3.org/1999/xlink" width="48px" height="48px" viewBox="0 0 48 48" version="1.1">
<g id="surface1">
<path style=" stroke:none;fill-rule:nonzero;fill:rgb(24.313726%,80.392158%,96.470588%);fill-opacity:1;" d="M 1.5 4.5 C 1.085938 4.5 0.75 4.835938 0.75 5.25 L 0.75 42.75 C 0.75 43.164062 1.085938 43.5 1.5 43.5 L 46.5 43.5 C 46.914062 43.5 47.25 43.164062 47.25 42.75 L 47.25 5.25 C 47.25 4.835938 46.914062 4.5 46.5 4.5 Z M 1.5 4.5 "/>
<path style=" stroke:none;fill-rule:evenodd;fill:rgb(9.019608%,18.431373%,33.333334%);fill-opacity:1;" d="M 42.75 21.75 L 21 43.5 L 46.5 43.5 C 46.914062 43.5 47.25 43.164062 47.25 42.75 L 47.25 26.25 Z M 42.75 21.75 "/>
<path style=" stroke:none;fill-rule:evenodd;fill:rgb(94.509804%,94.901961%,95.686275%);fill-opacity:1;" d="M 42.75 21.75 L 37.050781 27.449219 L 39.75 26.25 L 42.75 28.5 L 43.5 27 L 47.25 30.75 L 45.75 27 L 47.25 27 L 47.25 26.25 Z M 42.75 21.75 "/>
<path style=" stroke:none;fill-rule:nonzero;fill:rgb(77.254903%,93.725491%,96.862745%);fill-opacity:1;" d="M 0.75 40.5 L 0.75 42.75 C 0.75 43.164062 1.085938 43.5 1.5 43.5 L 46.5 43.5 C 46.914062 43.5 47.25 43.164062 47.25 42.75 L 47.25 40.5 Z M 0.75 40.5 "/>
<path style=" stroke:none;fill-rule:nonzero;fill:rgb(17.254902%,24.313726%,31.37255%);fill-opacity:1;" d="M 45 41.625 C 45 41.832031 44.832031 42 44.625 42 C 44.417969 42 44.25 41.832031 44.25 41.625 C 44.25 41.417969 44.417969 41.25 44.625 41.25 C 44.832031 41.25 45 41.417969 45 41.625 Z M 45 41.625 "/>
<path style=" stroke:none;fill-rule:nonzero;fill:rgb(17.254902%,24.313726%,31.37255%);fill-opacity:1;" d="M 42.75 41.625 C 42.75 41.832031 42.582031 42 42.375 42 C 42.167969 42 42 41.832031 42 41.625 C 42 41.417969 42.167969 41.25 42.375 41.25 C 42.582031 41.25 42.75 41.417969 42.75 41.625 Z M 42.75 41.625 "/>
<path style=" stroke:none;fill-rule:nonzero;fill:rgb(17.254902%,24.313726%,31.37255%);fill-opacity:1;" d="M 40.5 41.625 C 40.5 41.832031 40.332031 42 40.125 42 C 39.917969 42 39.75 41.832031 39.75 41.625 C 39.75 41.417969 39.917969 41.25 40.125 41.25 C 40.332031 41.25 40.5 41.417969 40.5 41.625 Z M 40.5 41.625 "/>
<path style=" stroke:none;fill-rule:nonzero;fill:rgb(72.941178%,92.156863%,98.823529%);fill-opacity:1;" d="M 8.25 7.125 C 7.605469 7.125 6.988281 7.40625 6.5625 7.890625 C 6.09375 7.949219 5.675781 8.226562 5.441406 8.640625 C 5.378906 8.628906 5.316406 8.625 5.25 8.625 C 4.421875 8.625 3.75 9.296875 3.75 10.125 C 3.75 10.191406 3.753906 10.253906 3.765625 10.320312 C 3.292969 10.585938 3 11.085938 3 11.625 C 3 12.453125 3.671875 13.125 4.5 13.125 L 11.25 13.125 C 12.492188 13.125 13.5 12.117188 13.5 10.875 C 13.5 9.632812 12.492188 8.625 11.25 8.625 C 11.183594 8.625 11.117188 8.632812 11.054688 8.636719 C 10.820312 8.222656 10.40625 7.945312 9.933594 7.890625 C 9.507812 7.40625 8.894531 7.125 8.25 7.125 Z M 8.25 7.125 "/>
<path style=" stroke:none;fill-rule:nonzero;fill:rgb(65.098041%,90.588236%,95.294118%);fill-opacity:1;" d="M 0.75 42.75 C 0.75 43.164062 1.085938 43.5 1.5 43.5 L 46.5 43.5 C 46.914062 43.5 47.25 43.164062 47.25 42.75 Z M 0.75 42.75 "/>
<path style=" stroke:none;fill-rule:nonzero;fill:rgb(17.254902%,24.313726%,31.37255%);fill-opacity:1;" d="M 2.25 41.625 C 2.25 41.832031 2.082031 42 1.875 42 C 1.667969 42 1.5 41.832031 1.5 41.625 C 1.5 41.417969 1.667969 41.25 1.875 41.25 C 2.082031 41.25 2.25 41.417969 2.25 41.625 Z M 2.25 41.625 "/>
<path style=" stroke:none;fill-rule:nonzero;fill:rgb(17.254902%,24.313726%,31.37255%);fill-opacity:1;" d="M 3.75 41.625 C 3.75 41.832031 3.582031 42 3.375 42 C 3.167969 42 3 41.832031 3 41.625 C 3 41.417969 3.167969 41.25 3.375 41.25 C 3.582031 41.25 3.75 41.417969 3.75 41.625 Z M 3.75 41.625 "/>
</g>
</svg>
