<?xml version="1.0" encoding="UTF-8"?>
<svg xmlns="http://www.w3.org/2000/svg" xmlns:xlink="http://www.w3.org/1999/xlink" width="48px" height="48px" viewBox="0 0 48 48" version="1.1">
<g id="surface1">
<path style=" stroke:none;fill-rule:nonzero;fill:rgb(85.490197%,87.450981%,88.235295%);fill-opacity:1;" d="M 36.75 40.5 C 36.75 42.15625 31.042969 43.5 24 43.5 C 16.957031 43.5 11.25 42.15625 11.25 40.5 C 11.25 38.84375 16.957031 37.5 24 37.5 C 31.042969 37.5 36.75 38.84375 36.75 40.5 Z M 36.75 40.5 "/>
<path style=" stroke:none;fill-rule:evenodd;fill:rgb(85.490197%,87.450981%,88.235295%);fill-opacity:1;" d="M 6 9 L 11.25 40.5 L 24 41.25 L 36.75 40.5 L 42 9 Z M 6 9 "/>
<path style=" stroke:none;fill-rule:nonzero;fill:rgb(42.352942%,47.843137%,53.725493%);fill-opacity:1;" d="M 42 9 C 42 11.484375 33.941406 13.5 24 13.5 C 14.058594 13.5 6 11.484375 6 9 C 6 6.515625 14.058594 4.5 24 4.5 C 33.941406 4.5 42 6.515625 42 9 Z M 42 9 "/>
<path style=" stroke:none;fill-rule:nonzero;fill:rgb(42.352942%,47.843137%,53.725493%);fill-opacity:1;" d="M 36.695312 40.757812 C 34.777344 41.953125 29.699219 42.75 24 42.75 C 18.308594 42.75 13.234375 41.953125 11.308594 40.765625 C 11.894531 42.3125 17.398438 43.5 24 43.5 C 30.613281 43.5 36.125 42.308594 36.695312 40.757812 Z M 36.695312 40.757812 "/>
<path style=" stroke:none;fill-rule:nonzero;fill:rgb(80.392158%,25.882354%,29.803923%);fill-opacity:1;" d="M 39 11.484375 C 37.460938 12.0625 35.40625 12.542969 33 12.890625 L 33 26.25 L 36 24.148438 L 39 26.25 Z M 39 11.484375 "/>
<path style=" stroke:none;fill-rule:nonzero;fill:rgb(82.352942%,30.19608%,34.117648%);fill-opacity:1;" d="M 38.25 11.742188 C 37.082031 12.121094 35.675781 12.453125 34.089844 12.71875 C 33.996094 12.738281 33.863281 12.761719 33.75 12.789062 L 33.75 24.75 L 36 23.25 L 38.25 24.75 Z M 38.25 11.742188 "/>
<path style=" stroke:none;fill-rule:nonzero;fill:rgb(42.352942%,47.843137%,53.725493%);fill-opacity:1;" d="M 21.464844 20.25 L 19.746094 23.402344 L 22.496094 25.019531 L 24 22.359375 L 24.523438 23.285156 L 24.039062 24.132812 L 26.839844 24.132812 L 28.367188 21.4375 L 27.695312 21.828125 L 26.816406 20.25 Z M 28.941406 25.125 L 26.191406 26.753906 L 27.695312 29.425781 L 26.648438 29.425781 L 26.164062 28.5625 L 24.765625 31.039062 L 26.292969 33.75 L 26.292969 32.96875 L 28.074219 32.96875 L 30.46875 28.734375 L 30.699219 28.328125 L 30.75 28.226562 Z M 17.464844 26.085938 L 18.140625 26.480469 L 17.25 28.054688 L 19.644531 32.289062 L 19.859375 32.695312 L 19.925781 32.796875 L 23.453125 32.746094 L 23.453125 29.488281 L 20.433594 29.488281 L 20.957031 28.5625 L 21.925781 28.5625 L 20.523438 26.085938 Z M 17.464844 26.085938 "/>
</g>
</svg>
