<?xml version="1.0" encoding="UTF-8"?>
<svg xmlns="http://www.w3.org/2000/svg" xmlns:xlink="http://www.w3.org/1999/xlink" width="24px" height="24px" viewBox="0 0 24 24" version="1.1">
<defs>
<filter id="alpha" filterUnits="objectBoundingBox" x="0%" y="0%" width="100%" height="100%">
  <feColorMatrix type="matrix" in="SourceGraphic" values="0 0 0 0 1 0 0 0 0 1 0 0 0 0 1 0 0 0 1 0"/>
</filter>
<mask id="mask0">
  <g filter="url(#alpha)">
<rect x="0" y="0" width="24" height="24" style="fill:rgb(0%,0%,0%);fill-opacity:0.25;stroke:none;"/>
  </g>
</mask>
<clipPath id="clip1">
  <rect x="0" y="0" width="24" height="24"/>
</clipPath>
<g id="surface5" clip-path="url(#clip1)">
<path style=" stroke:none;fill-rule:nonzero;fill:rgb(0%,0%,0%);fill-opacity:1;" d="M 0.375 21.375 C 0.375 21.582031 0.542969 21.75 0.75 21.75 L 23.25 21.75 C 23.457031 21.75 23.625 21.582031 23.625 21.375 Z M 0.375 21.375 "/>
</g>
</defs>
<g id="surface1">
<path style=" stroke:none;fill-rule:evenodd;fill:rgb(20.784314%,26.274511%,29.411766%);fill-opacity:1;" d="M 1.5 2.25 C 1.292969 2.269531 1.125 2.417969 1.125 2.625 L 1.125 18.375 L 22.875 18.375 L 22.875 4.125 C 22.875 3.75 22.5 3.75 22.5 3.75 L 12.375 3.75 C 11.625 2.25 10.125 2.25 10.125 2.25 Z M 1.5 2.25 "/>
<path style=" stroke:none;fill-rule:nonzero;fill:rgb(100%,100%,100%);fill-opacity:1;" d="M 2.625 4.875 L 21.375 4.875 L 21.375 16.875 L 2.625 16.875 Z M 2.625 4.875 "/>
<path style=" stroke:none;fill-rule:evenodd;fill:rgb(30.588236%,38.039216%,43.137255%);fill-opacity:1;" d="M 14.625 5.625 C 14.625 5.625 13.125 5.625 12.375 7.125 L 0.75 7.125 C 0.75 7.125 0.699219 7.132812 0.640625 7.148438 C 0.625 7.152344 0.605469 7.15625 0.589844 7.164062 C 0.488281 7.203125 0.375 7.292969 0.375 7.5 L 0.375 21.375 C 0.375 21.582031 0.542969 21.75 0.75 21.75 L 23.25 21.75 C 23.457031 21.75 23.625 21.582031 23.625 21.375 L 23.625 6 C 23.625 5.792969 23.457031 5.625 23.25 5.625 Z M 14.625 5.625 "/>
<use xlink:href="#surface5" mask="url(#mask0)"/>
<path style=" stroke:none;fill-rule:nonzero;fill:rgb(15.686275%,20%,22.352941%);fill-opacity:1;" d="M 15 18 L 15 10.5 L 10.875 10.5 L 9 12.375 L 9 18 Z M 14.25 17.25 L 9.75 17.25 L 9.75 12.75 L 11.25 12.75 L 11.25 11.25 L 14.25 11.25 Z M 14.25 17.25 "/>
</g>
</svg>
