<?xml version="1.0" encoding="UTF-8"?>
<svg xmlns="http://www.w3.org/2000/svg" xmlns:xlink="http://www.w3.org/1999/xlink" width="24px" height="24px" viewBox="0 0 24 24" version="1.1">
<g id="surface1">
<path style=" stroke:none;fill-rule:nonzero;fill:rgb(85.490197%,87.450981%,88.235295%);fill-opacity:1;" d="M 18.375 20.25 C 18.375 21.078125 15.519531 21.75 12 21.75 C 8.480469 21.75 5.625 21.078125 5.625 20.25 C 5.625 19.421875 8.480469 18.75 12 18.75 C 15.519531 18.75 18.375 19.421875 18.375 20.25 Z M 18.375 20.25 "/>
<path style=" stroke:none;fill-rule:evenodd;fill:rgb(85.490197%,87.450981%,88.235295%);fill-opacity:1;" d="M 3 4.5 L 5.625 20.25 L 12 20.625 L 18.375 20.25 L 21 4.5 Z M 3 4.5 "/>
<path style=" stroke:none;fill-rule:nonzero;fill:rgb(42.352942%,47.843137%,53.725493%);fill-opacity:1;" d="M 21 4.5 C 21 5.742188 16.96875 6.75 12 6.75 C 7.03125 6.75 3 5.742188 3 4.5 C 3 3.257812 7.03125 2.25 12 2.25 C 16.96875 2.25 21 3.257812 21 4.5 Z M 21 4.5 "/>
<path style=" stroke:none;fill-rule:nonzero;fill:rgb(42.352942%,47.843137%,53.725493%);fill-opacity:1;" d="M 18.347656 20.378906 C 17.390625 20.976562 14.847656 21.375 12 21.375 C 9.15625 21.375 6.617188 20.976562 5.65625 20.382812 C 5.945312 21.15625 8.699219 21.75 12 21.75 C 15.304688 21.75 18.0625 21.15625 18.347656 20.378906 Z M 18.347656 20.378906 "/>
<path style=" stroke:none;fill-rule:nonzero;fill:rgb(42.352942%,47.843137%,53.725493%);fill-opacity:1;" d="M 10.734375 10.125 L 9.875 11.703125 L 11.25 12.507812 L 12 11.179688 L 12.261719 11.644531 L 12.019531 12.066406 L 13.421875 12.066406 L 14.183594 10.71875 L 13.847656 10.914062 L 13.40625 10.125 Z M 14.472656 12.5625 L 13.09375 13.375 L 13.847656 14.710938 L 13.324219 14.710938 L 13.082031 14.28125 L 12.382812 15.519531 L 13.144531 16.875 L 13.144531 16.484375 L 14.039062 16.484375 L 15.234375 14.367188 L 15.347656 14.164062 L 15.375 14.113281 Z M 8.734375 13.042969 L 9.070312 13.238281 L 8.625 14.027344 L 9.820312 16.144531 L 9.929688 16.347656 L 9.960938 16.398438 L 11.726562 16.375 L 11.726562 14.746094 L 10.21875 14.746094 L 10.476562 14.28125 L 10.960938 14.28125 L 10.261719 13.042969 Z M 8.734375 13.042969 "/>
</g>
</svg>
