<?xml version="1.0" encoding="UTF-8"?>
<svg xmlns="http://www.w3.org/2000/svg" xmlns:xlink="http://www.w3.org/1999/xlink" width="24px" height="24px" viewBox="0 0 24 24" version="1.1">
<g id="surface1">
<path style=" stroke:none;fill-rule:nonzero;fill:rgb(24.313726%,80.392158%,96.470588%);fill-opacity:1;" d="M 0.75 2.25 C 0.542969 2.25 0.375 2.417969 0.375 2.625 L 0.375 21.375 C 0.375 21.582031 0.542969 21.75 0.75 21.75 L 23.25 21.75 C 23.457031 21.75 23.625 21.582031 23.625 21.375 L 23.625 2.625 C 23.625 2.417969 23.457031 2.25 23.25 2.25 Z M 0.75 2.25 "/>
<path style=" stroke:none;fill-rule:evenodd;fill:rgb(9.019608%,18.431373%,33.333334%);fill-opacity:1;" d="M 21.375 10.875 L 10.5 21.75 L 23.25 21.75 C 23.457031 21.75 23.625 21.582031 23.625 21.375 L 23.625 13.125 Z M 21.375 10.875 "/>
<path style=" stroke:none;fill-rule:evenodd;fill:rgb(94.509804%,94.901961%,95.686275%);fill-opacity:1;" d="M 21.375 10.875 L 18.523438 13.726562 L 19.875 13.125 L 21.375 14.25 L 21.75 13.5 L 23.625 15.375 L 22.875 13.5 L 23.625 13.5 L 23.625 13.125 Z M 21.375 10.875 "/>
<path style=" stroke:none;fill-rule:nonzero;fill:rgb(77.254903%,93.725491%,96.862745%);fill-opacity:1;" d="M 0.375 20.25 L 0.375 21.375 C 0.375 21.582031 0.542969 21.75 0.75 21.75 L 23.25 21.75 C 23.457031 21.75 23.625 21.582031 23.625 21.375 L 23.625 20.25 Z M 0.375 20.25 "/>
<path style=" stroke:none;fill-rule:nonzero;fill:rgb(17.254902%,24.313726%,31.37255%);fill-opacity:1;" d="M 22.5 20.8125 C 22.5 20.917969 22.417969 21 22.3125 21 C 22.207031 21 22.125 20.917969 22.125 20.8125 C 22.125 20.710938 22.207031 20.625 22.3125 20.625 C 22.417969 20.625 22.5 20.710938 22.5 20.8125 Z M 22.5 20.8125 "/>
<path style=" stroke:none;fill-rule:nonzero;fill:rgb(17.254902%,24.313726%,31.37255%);fill-opacity:1;" d="M 21.375 20.8125 C 21.375 20.917969 21.292969 21 21.1875 21 C 21.082031 21 21 20.917969 21 20.8125 C 21 20.710938 21.082031 20.625 21.1875 20.625 C 21.292969 20.625 21.375 20.710938 21.375 20.8125 Z M 21.375 20.8125 "/>
<path style=" stroke:none;fill-rule:nonzero;fill:rgb(17.254902%,24.313726%,31.37255%);fill-opacity:1;" d="M 20.25 20.8125 C 20.25 20.917969 20.167969 21 20.0625 21 C 19.957031 21 19.875 20.917969 19.875 20.8125 C 19.875 20.710938 19.957031 20.625 20.0625 20.625 C 20.167969 20.625 20.25 20.710938 20.25 20.8125 Z M 20.25 20.8125 "/>
<path style=" stroke:none;fill-rule:nonzero;fill:rgb(72.941178%,92.156863%,98.823529%);fill-opacity:1;" d="M 4.125 3.5625 C 3.800781 3.5625 3.496094 3.703125 3.28125 3.945312 C 3.046875 3.972656 2.839844 4.113281 2.722656 4.320312 C 2.691406 4.316406 2.65625 4.3125 2.625 4.3125 C 2.210938 4.3125 1.875 4.648438 1.875 5.0625 C 1.875 5.09375 1.878906 5.128906 1.882812 5.160156 C 1.644531 5.292969 1.5 5.542969 1.5 5.8125 C 1.5 6.226562 1.835938 6.5625 2.25 6.5625 L 5.625 6.5625 C 6.246094 6.5625 6.75 6.058594 6.75 5.4375 C 6.75 4.816406 6.246094 4.3125 5.625 4.3125 C 5.59375 4.3125 5.558594 4.316406 5.527344 4.316406 C 5.410156 4.113281 5.203125 3.972656 4.96875 3.945312 C 4.753906 3.703125 4.449219 3.5625 4.125 3.5625 Z M 4.125 3.5625 "/>
<path style=" stroke:none;fill-rule:nonzero;fill:rgb(65.098041%,90.588236%,95.294118%);fill-opacity:1;" d="M 0.375 21.375 C 0.375 21.582031 0.542969 21.75 0.75 21.75 L 23.25 21.75 C 23.457031 21.75 23.625 21.582031 23.625 21.375 Z M 0.375 21.375 "/>
<path style=" stroke:none;fill-rule:nonzero;fill:rgb(17.254902%,24.313726%,31.37255%);fill-opacity:1;" d="M 1.125 20.8125 C 1.125 20.917969 1.042969 21 0.9375 21 C 0.832031 21 0.75 20.917969 0.75 20.8125 C 0.75 20.710938 0.832031 20.625 0.9375 20.625 C 1.042969 20.625 1.125 20.710938 1.125 20.8125 Z M 1.125 20.8125 "/>
<path style=" stroke:none;fill-rule:nonzero;fill:rgb(17.254902%,24.313726%,31.37255%);fill-opacity:1;" d="M 1.875 20.8125 C 1.875 20.917969 1.792969 21 1.6875 21 C 1.582031 21 1.5 20.917969 1.5 20.8125 C 1.5 20.710938 1.582031 20.625 1.6875 20.625 C 1.792969 20.625 1.875 20.710938 1.875 20.8125 Z M 1.875 20.8125 "/>
</g>
</svg>
