<?xml version="1.0" encoding="UTF-8"?>
<svg xmlns="http://www.w3.org/2000/svg" xmlns:xlink="http://www.w3.org/1999/xlink" width="22px" height="22px" viewBox="0 0 22 22" version="1.1">
<defs>
<filter id="alpha" filterUnits="objectBoundingBox" x="0%" y="0%" width="100%" height="100%">
  <feColorMatrix type="matrix" in="SourceGraphic" values="0 0 0 0 1 0 0 0 0 1 0 0 0 0 1 0 0 0 1 0"/>
</filter>
<mask id="mask0">
  <g filter="url(#alpha)">
<rect x="0" y="0" width="22" height="22" style="fill:rgb(0%,0%,0%);fill-opacity:0.25;stroke:none;"/>
  </g>
</mask>
<clipPath id="clip1">
  <rect x="0" y="0" width="22" height="22"/>
</clipPath>
<g id="surface5" clip-path="url(#clip1)">
<path style=" stroke:none;fill-rule:nonzero;fill:rgb(0%,0%,0%);fill-opacity:1;" d="M 0.34375 19.59375 C 0.34375 19.785156 0.496094 19.9375 0.6875 19.9375 L 21.3125 19.9375 C 21.503906 19.9375 21.65625 19.785156 21.65625 19.59375 Z M 0.34375 19.59375 "/>
</g>
</defs>
<g id="surface1">
<path style=" stroke:none;fill-rule:evenodd;fill:rgb(20.784314%,26.274511%,29.411766%);fill-opacity:1;" d="M 1.375 2.0625 C 1.183594 2.082031 1.03125 2.214844 1.03125 2.40625 L 1.03125 16.84375 L 20.96875 16.84375 L 20.96875 3.78125 C 20.96875 3.4375 20.625 3.4375 20.625 3.4375 L 11.34375 3.4375 C 10.65625 2.0625 9.28125 2.0625 9.28125 2.0625 Z M 1.375 2.0625 "/>
<path style=" stroke:none;fill-rule:nonzero;fill:rgb(100%,100%,100%);fill-opacity:1;" d="M 2.40625 4.46875 L 19.59375 4.46875 L 19.59375 15.46875 L 2.40625 15.46875 Z M 2.40625 4.46875 "/>
<path style=" stroke:none;fill-rule:evenodd;fill:rgb(30.588236%,38.039216%,43.137255%);fill-opacity:1;" d="M 13.40625 5.15625 C 13.40625 5.15625 12.03125 5.15625 11.34375 6.53125 L 0.6875 6.53125 C 0.6875 6.53125 0.640625 6.535156 0.589844 6.550781 C 0.574219 6.554688 0.554688 6.558594 0.542969 6.566406 C 0.449219 6.605469 0.34375 6.683594 0.34375 6.875 L 0.34375 19.59375 C 0.34375 19.785156 0.496094 19.9375 0.6875 19.9375 L 21.3125 19.9375 C 21.503906 19.9375 21.65625 19.785156 21.65625 19.59375 L 21.65625 5.5 C 21.65625 5.308594 21.503906 5.15625 21.3125 5.15625 Z M 13.40625 5.15625 "/>
<use xlink:href="#surface5" mask="url(#mask0)"/>
</g>
</svg>
