<?xml version="1.0" encoding="UTF-8"?>
<svg xmlns="http://www.w3.org/2000/svg" xmlns:xlink="http://www.w3.org/1999/xlink" width="22px" height="22px" viewBox="0 0 22 22" version="1.1">
<defs>
<filter id="alpha" filterUnits="objectBoundingBox" x="0%" y="0%" width="100%" height="100%">
  <feColorMatrix type="matrix" in="SourceGraphic" values="0 0 0 0 1 0 0 0 0 1 0 0 0 0 1 0 0 0 1 0"/>
</filter>
<mask id="mask0">
  <g filter="url(#alpha)">
<rect x="0" y="0" width="22" height="22" style="fill:rgb(0%,0%,0%);fill-opacity:0.25;stroke:none;"/>
  </g>
</mask>
<clipPath id="clip1">
  <rect x="0" y="0" width="22" height="22"/>
</clipPath>
<g id="surface5" clip-path="url(#clip1)">
<path style=" stroke:none;fill-rule:nonzero;fill:rgb(0%,0%,0%);fill-opacity:1;" d="M 0.34375 19.59375 C 0.34375 19.785156 0.496094 19.9375 0.6875 19.9375 L 21.3125 19.9375 C 21.503906 19.9375 21.65625 19.785156 21.65625 19.59375 Z M 0.34375 19.59375 "/>
</g>
</defs>
<g id="surface1">
<path style=" stroke:none;fill-rule:evenodd;fill:rgb(61.56863%,22.745098%,25.490198%);fill-opacity:1;" d="M 1.375 2.0625 C 1.183594 2.082031 1.03125 2.214844 1.03125 2.40625 L 1.03125 16.84375 L 20.96875 16.84375 L 20.96875 3.78125 C 20.96875 3.4375 20.625 3.4375 20.625 3.4375 L 11.34375 3.4375 C 10.65625 2.0625 9.28125 2.0625 9.28125 2.0625 Z M 1.375 2.0625 "/>
<path style=" stroke:none;fill-rule:nonzero;fill:rgb(100%,100%,100%);fill-opacity:1;" d="M 2.40625 4.46875 L 19.59375 4.46875 L 19.59375 15.46875 L 2.40625 15.46875 Z M 2.40625 4.46875 "/>
<path style=" stroke:none;fill-rule:evenodd;fill:rgb(82.352942%,30.19608%,34.117648%);fill-opacity:1;" d="M 13.40625 5.15625 C 13.40625 5.15625 12.03125 5.15625 11.34375 6.53125 L 0.6875 6.53125 C 0.6875 6.53125 0.640625 6.535156 0.589844 6.550781 C 0.574219 6.554688 0.554688 6.558594 0.542969 6.566406 C 0.449219 6.605469 0.34375 6.683594 0.34375 6.875 L 0.34375 19.59375 C 0.34375 19.785156 0.496094 19.9375 0.6875 19.9375 L 21.3125 19.9375 C 21.503906 19.9375 21.65625 19.785156 21.65625 19.59375 L 21.65625 5.5 C 21.65625 5.308594 21.503906 5.15625 21.3125 5.15625 Z M 13.40625 5.15625 "/>
<use xlink:href="#surface5" mask="url(#mask0)"/>
<path style=" stroke:none;fill-rule:nonzero;fill:rgb(61.56863%,22.745098%,25.490198%);fill-opacity:1;" d="M 9.625 9.625 C 9.246094 9.625 8.9375 9.933594 8.9375 10.3125 C 8.9375 10.558594 9.070312 10.785156 9.28125 10.90625 L 9.28125 15.21875 C 9.070312 15.339844 8.9375 15.566406 8.9375 15.8125 C 8.9375 16.191406 9.246094 16.5 9.625 16.5 C 10.003906 16.5 10.3125 16.191406 10.3125 15.8125 C 10.3125 15.566406 10.179688 15.339844 9.96875 15.21875 L 9.96875 14.78125 C 9.96875 14.210938 10.429688 13.75 11 13.75 L 11.859375 13.75 C 12.714844 13.75 13.40625 13.058594 13.40625 12.203125 L 13.40625 11.59375 C 13.617188 11.472656 13.75 11.246094 13.75 11 C 13.75 10.621094 13.441406 10.3125 13.0625 10.3125 C 12.683594 10.3125 12.375 10.621094 12.375 11 C 12.375 11.246094 12.507812 11.472656 12.71875 11.59375 L 12.71875 12.03125 C 12.71875 12.601562 12.257812 13.0625 11.6875 13.0625 L 10.828125 13.0625 C 10.507812 13.0625 10.214844 13.160156 9.96875 13.324219 L 9.96875 10.90625 C 10.179688 10.785156 10.3125 10.558594 10.3125 10.3125 C 10.3125 9.933594 10.003906 9.625 9.625 9.625 Z M 9.625 9.625 "/>
</g>
</svg>
