<?xml version="1.0" encoding="UTF-8"?>
<svg xmlns="http://www.w3.org/2000/svg" xmlns:xlink="http://www.w3.org/1999/xlink" width="22px" height="22px" viewBox="0 0 22 22" version="1.1">
<g id="surface1">
<path style=" stroke:none;fill-rule:nonzero;fill:rgb(85.490197%,87.450981%,88.235295%);fill-opacity:1;" d="M 16.84375 18.5625 C 16.84375 19.320312 14.226562 19.9375 11 19.9375 C 7.773438 19.9375 5.15625 19.320312 5.15625 18.5625 C 5.15625 17.804688 7.773438 17.1875 11 17.1875 C 14.226562 17.1875 16.84375 17.804688 16.84375 18.5625 Z M 16.84375 18.5625 "/>
<path style=" stroke:none;fill-rule:evenodd;fill:rgb(85.490197%,87.450981%,88.235295%);fill-opacity:1;" d="M 2.75 4.125 L 5.15625 18.5625 L 11 18.90625 L 16.84375 18.5625 L 19.25 4.125 Z M 2.75 4.125 "/>
<path style=" stroke:none;fill-rule:nonzero;fill:rgb(42.352942%,47.843137%,53.725493%);fill-opacity:1;" d="M 19.25 4.125 C 19.25 5.265625 15.554688 6.1875 11 6.1875 C 6.445312 6.1875 2.75 5.265625 2.75 4.125 C 2.75 2.984375 6.445312 2.0625 11 2.0625 C 15.554688 2.0625 19.25 2.984375 19.25 4.125 Z M 19.25 4.125 "/>
<path style=" stroke:none;fill-rule:nonzero;fill:rgb(42.352942%,47.843137%,53.725493%);fill-opacity:1;" d="M 16.820312 18.679688 C 15.941406 19.226562 13.613281 19.59375 11 19.59375 C 8.390625 19.59375 6.066406 19.230469 5.183594 18.683594 C 5.449219 19.394531 7.972656 19.9375 11 19.9375 C 14.03125 19.9375 16.558594 19.390625 16.820312 18.679688 Z M 16.820312 18.679688 "/>
<path style=" stroke:none;fill-rule:nonzero;fill:rgb(42.352942%,47.843137%,53.725493%);fill-opacity:1;" d="M 9.839844 9.28125 L 9.050781 10.726562 L 10.3125 11.46875 L 11 10.25 L 11.238281 10.671875 L 11.015625 11.0625 L 12.300781 11.0625 L 13.003906 9.824219 L 12.691406 10.003906 L 12.289062 9.28125 Z M 13.265625 11.515625 L 12.003906 12.261719 L 12.691406 13.484375 L 12.214844 13.484375 L 11.992188 13.089844 L 11.351562 14.226562 L 12.050781 15.46875 L 12.050781 15.109375 L 12.867188 15.109375 L 13.964844 13.167969 L 14.070312 12.984375 L 14.09375 12.9375 Z M 8.003906 11.957031 L 8.316406 12.136719 L 7.90625 12.859375 L 9.003906 14.800781 L 9.101562 14.984375 L 9.132812 15.03125 L 10.75 15.007812 L 10.75 13.515625 L 9.367188 13.515625 L 9.605469 13.089844 L 10.046875 13.089844 L 9.40625 11.957031 Z M 8.003906 11.957031 "/>
</g>
</svg>
