<?xml version="1.0" encoding="UTF-8"?>
<svg xmlns="http://www.w3.org/2000/svg" xmlns:xlink="http://www.w3.org/1999/xlink" width="22px" height="22px" viewBox="0 0 22 22" version="1.1">
<g id="surface1">
<path style=" stroke:none;fill-rule:nonzero;fill:rgb(24.313726%,80.392158%,96.470588%);fill-opacity:1;" d="M 0.6875 2.0625 C 0.496094 2.0625 0.34375 2.214844 0.34375 2.40625 L 0.34375 19.59375 C 0.34375 19.785156 0.496094 19.9375 0.6875 19.9375 L 21.3125 19.9375 C 21.503906 19.9375 21.65625 19.785156 21.65625 19.59375 L 21.65625 2.40625 C 21.65625 2.214844 21.503906 2.0625 21.3125 2.0625 Z M 0.6875 2.0625 "/>
<path style=" stroke:none;fill-rule:evenodd;fill:rgb(9.019608%,18.431373%,33.333334%);fill-opacity:1;" d="M 19.59375 9.96875 L 9.625 19.9375 L 21.3125 19.9375 C 21.503906 19.9375 21.65625 19.785156 21.65625 19.59375 L 21.65625 12.03125 Z M 19.59375 9.96875 "/>
<path style=" stroke:none;fill-rule:evenodd;fill:rgb(94.509804%,94.901961%,95.686275%);fill-opacity:1;" d="M 19.59375 9.96875 L 16.980469 12.582031 L 18.21875 12.03125 L 19.59375 13.0625 L 19.9375 12.375 L 21.65625 14.09375 L 20.96875 12.375 L 21.65625 12.375 L 21.65625 12.03125 Z M 19.59375 9.96875 "/>
<path style=" stroke:none;fill-rule:nonzero;fill:rgb(77.254903%,93.725491%,96.862745%);fill-opacity:1;" d="M 0.34375 18.5625 L 0.34375 19.59375 C 0.34375 19.785156 0.496094 19.9375 0.6875 19.9375 L 21.3125 19.9375 C 21.503906 19.9375 21.65625 19.785156 21.65625 19.59375 L 21.65625 18.5625 Z M 0.34375 18.5625 "/>
<path style=" stroke:none;fill-rule:nonzero;fill:rgb(17.254902%,24.313726%,31.37255%);fill-opacity:1;" d="M 20.625 19.078125 C 20.625 19.171875 20.546875 19.25 20.453125 19.25 C 20.359375 19.25 20.28125 19.171875 20.28125 19.078125 C 20.28125 18.984375 20.359375 18.90625 20.453125 18.90625 C 20.546875 18.90625 20.625 18.984375 20.625 19.078125 Z M 20.625 19.078125 "/>
<path style=" stroke:none;fill-rule:nonzero;fill:rgb(17.254902%,24.313726%,31.37255%);fill-opacity:1;" d="M 19.59375 19.078125 C 19.59375 19.171875 19.515625 19.25 19.421875 19.25 C 19.328125 19.25 19.25 19.171875 19.25 19.078125 C 19.25 18.984375 19.328125 18.90625 19.421875 18.90625 C 19.515625 18.90625 19.59375 18.984375 19.59375 19.078125 Z M 19.59375 19.078125 "/>
<path style=" stroke:none;fill-rule:nonzero;fill:rgb(17.254902%,24.313726%,31.37255%);fill-opacity:1;" d="M 18.5625 19.078125 C 18.5625 19.171875 18.484375 19.25 18.390625 19.25 C 18.296875 19.25 18.21875 19.171875 18.21875 19.078125 C 18.21875 18.984375 18.296875 18.90625 18.390625 18.90625 C 18.484375 18.90625 18.5625 18.984375 18.5625 19.078125 Z M 18.5625 19.078125 "/>
<path style=" stroke:none;fill-rule:nonzero;fill:rgb(72.941178%,92.156863%,98.823529%);fill-opacity:1;" d="M 3.78125 3.265625 C 3.484375 3.265625 3.203125 3.394531 3.007812 3.617188 C 2.792969 3.644531 2.601562 3.769531 2.496094 3.960938 C 2.464844 3.957031 2.4375 3.953125 2.40625 3.953125 C 2.027344 3.953125 1.71875 4.261719 1.71875 4.640625 C 1.71875 4.671875 1.722656 4.699219 1.726562 4.730469 C 1.507812 4.851562 1.375 5.082031 1.375 5.328125 C 1.375 5.707031 1.683594 6.015625 2.0625 6.015625 L 5.15625 6.015625 C 5.726562 6.015625 6.1875 5.554688 6.1875 4.984375 C 6.1875 4.414062 5.726562 3.953125 5.15625 3.953125 C 5.125 3.953125 5.097656 3.957031 5.066406 3.957031 C 4.957031 3.769531 4.769531 3.640625 4.554688 3.617188 C 4.359375 3.394531 4.078125 3.265625 3.78125 3.265625 Z M 3.78125 3.265625 "/>
<path style=" stroke:none;fill-rule:nonzero;fill:rgb(65.098041%,90.588236%,95.294118%);fill-opacity:1;" d="M 0.34375 19.59375 C 0.34375 19.785156 0.496094 19.9375 0.6875 19.9375 L 21.3125 19.9375 C 21.503906 19.9375 21.65625 19.785156 21.65625 19.59375 Z M 0.34375 19.59375 "/>
<path style=" stroke:none;fill-rule:nonzero;fill:rgb(17.254902%,24.313726%,31.37255%);fill-opacity:1;" d="M 1.03125 19.078125 C 1.03125 19.171875 0.953125 19.25 0.859375 19.25 C 0.765625 19.25 0.6875 19.171875 0.6875 19.078125 C 0.6875 18.984375 0.765625 18.90625 0.859375 18.90625 C 0.953125 18.90625 1.03125 18.984375 1.03125 19.078125 Z M 1.03125 19.078125 "/>
<path style=" stroke:none;fill-rule:nonzero;fill:rgb(17.254902%,24.313726%,31.37255%);fill-opacity:1;" d="M 1.71875 19.078125 C 1.71875 19.171875 1.640625 19.25 1.546875 19.25 C 1.453125 19.25 1.375 19.171875 1.375 19.078125 C 1.375 18.984375 1.453125 18.90625 1.546875 18.90625 C 1.640625 18.90625 1.71875 18.984375 1.71875 19.078125 Z M 1.71875 19.078125 "/>
</g>
</svg>
